<?xml version="1.0" encoding="UTF-8" standalone="no"?>
<!DOCTYPE svg PUBLIC "-//W3C//DTD SVG 1.1//EN" "http://www.w3.org/Graphics/SVG/1.1/DTD/svg11.dtd">
<svg width="100%" height="100%" viewBox="0 0 24 24" version="1.1" xmlns="http://www.w3.org/2000/svg" xmlns:xlink="http://www.w3.org/1999/xlink" xml:space="preserve" xmlns:serif="http://www.serif.com/" style="fill-rule:evenodd;clip-rule:evenodd;stroke-linejoin:round;stroke-miterlimit:2;">
    <defs>
        <linearGradient id="grad1" x1="0%" y1="0%" x2="75%" y2="75%">
            <stop offset="0%" style="stop-color:rgb(255,0,142);stop-opacity:1" />
            <stop offset="100%" style="stop-color:rgb(103,0,255);stop-opacity:1" />
        </linearGradient>
    </defs>
    <g transform="matrix(0.0443652,0,0,0.0443652,0.908705,0.90184)">
        <path d="M62.691,379.963C67.994,373.052 79.538,357.899 93.727,338.611C96.136,339.088 98.625,339.338 101.172,339.338C106.605,339.338 111.774,338.201 116.453,336.151C122.78,343.098 129.045,349.717 135.106,355.778C150.94,371.612 170.008,388.405 189.165,404.314C187.936,408.06 187.272,412.058 187.272,416.21C187.272,437.276 204.375,454.379 225.441,454.379C232.742,454.379 239.568,452.325 245.368,448.764C262.595,461.819 276.111,471.602 281.933,475.777C271.494,477.243 260.835,478 250,478C172.447,478 103.885,439.196 62.691,379.963ZM472.494,200.017C476.099,216.112 478,232.836 478,250C478,353.073 409.456,440.263 315.515,468.431C308.855,463.905 287.765,449.409 261.213,429.542C262.762,425.392 263.61,420.899 263.61,416.21C263.61,395.144 246.507,378.041 225.441,378.041C217.549,378.041 210.214,380.441 204.125,384.551C186.209,369.581 168.451,353.768 152.784,338.101C146.845,332.162 140.818,325.828 134.789,319.249C136.4,316.264 137.623,313.042 138.394,309.65C174.014,304.977 215.884,297.576 259.609,285.86C291.123,277.416 320.816,267.459 347.503,257.351C354.448,264.566 364.204,269.058 375,269.058C396.066,269.058 413.169,251.955 413.169,230.889C413.169,230.547 413.165,230.207 413.156,229.865C444.915,215.278 466.283,203.516 472.494,200.017ZM32.217,317.638C38.28,317.577 50.593,317.346 66.205,316.485C67.674,319.832 69.611,322.93 71.932,325.693C63.095,337.457 55.03,347.934 48.371,356.471C41.847,344.15 36.419,331.164 32.217,317.638ZM23.774,221.448C29.361,229.001 47.515,253.35 69.173,280.365C66.865,283.906 65.129,287.851 64.096,292.071C46.475,293.125 32.682,293.392 26.145,293.458C23.425,279.392 22,264.861 22,250C22,240.336 22.603,230.811 23.774,221.448ZM265.419,22.514C358.605,28.753 436.531,91.077 465.701,175.996C459.407,179.546 437.33,191.711 404.518,206.7C397.517,198.168 386.89,192.72 375,192.72C353.934,192.72 336.831,209.823 336.831,230.889C336.831,232.18 336.895,233.456 337.021,234.714C311.407,244.293 283.107,253.682 253.139,261.712C210.925,273.023 170.485,280.308 135.75,284.997C135.262,283.956 134.727,282.939 134.15,281.951C149.263,259.986 163.96,237.514 175.257,217.947C191.57,189.692 208.519,154.654 223.295,121.992C224.004,122.032 224.72,122.052 225.441,122.052C246.507,122.052 263.61,104.949 263.61,83.883C263.61,73.008 259.053,63.19 251.746,56.236C258.787,39.265 263.679,26.937 265.419,22.514ZM238.035,22.309C235.385,29.16 232.266,37.096 228.742,45.855C227.654,45.761 226.553,45.713 225.441,45.713C204.375,45.713 187.272,62.816 187.272,83.883C187.272,95.343 192.333,105.63 200.34,112.628C186.39,143.582 170.357,176.434 153.606,205.447C142.392,224.871 128.982,245.564 115.19,265.661C110.85,263.944 106.12,263 101.172,263C96.834,263 92.665,263.725 88.78,265.06C60.503,229.647 36.974,196.795 30.6,187.807C56.653,95.842 139.032,27.44 238.035,22.309Z"
        style="fill:url(#grad1);"
        />
    </g>
</svg>
